# xmcd
#
# Track frame offsets:
#	150
#	16903
#	29498
#	44826
#	62925
#	81059
#	96207
#	110037
#	126754
#	139512
#	154966
#	175782
#	189872
#	205725
#	220134
#	234236
#	256412
#	272019
#	280839
#	296771
#	306163
#	323196
#	341410
#
# Disc length: 4789 seconds
#
# Revision: 1
# Processed by: cddbd v1.5.2PL0 Copyright (c) Steve Scherf et al.
# Submitted via: audiograbber 1.83.01
#
DISCID=5412b317
DTITLE=Georg Danzer - Die ultimative Liedersammlung  1
DYEAR=1900
DGENRE=Austropop
TTITLE0=Tschik
TTITLE1=Die alte Prohaska (Dialekt Reggae)
TTITLE2=Emil
TTITLE3=Klien gelbe Monprinzessin
TTITLE4=Ich bin sexuell verklemmt
TTITLE5=Jö schau
TTITLE6=Ollas Leiwand
TTITLE7=Schau Schatzi
TTITLE8=Ruaf mi ned an
TTITLE9=Hupf' in Gatsch
TTITLE10=Wia woa Weihnachten (Originalversion)
TTITLE11=Auf wos de Frau'n ollas schau'n
TTITLE12=Lass mi amoi no d'Sunn aufgeh' segn
TTITLE13=I hob' scho' so vü Liada g'schrieben
TTITLE14=Komm, zieh Dich aus
TTITLE15=War das etwa Haschisch
TTITLE16=Der legendäre Wixerblues (7. Okt. 1976)
TTITLE17=Wann i so z'ruckschau
TTITLE18=Die Moritat vom Frauenmörder Wurm
TTITLE19=I bin a kniera (die goldene Kniescheibe)
TTITLE20=Morgtenror
TTITLE21=Komm' zurück zu mir
TTITLE22=Feine Leute
EXTD=
EXTT0=
EXTT1=
EXTT2=
EXTT3=
EXTT4=
EXTT5=
EXTT6=
EXTT7=
EXTT8=
EXTT9=
EXTT10=
EXTT11=
EXTT12=
EXTT13=
EXTT14=
EXTT15=
EXTT16=
EXTT17=
EXTT18=
EXTT19=
EXTT20=
EXTT21=
EXTT22=
PLAYORDER=
